<?xml version="1.0" encoding="UTF-8"?>
<svg width="1200pt" height="1200pt" version="1.1" viewBox="0 0 1200 1200" xmlns="http://www.w3.org/2000/svg">
 <g>
  <path d="m1200 600c0 214.36-114.36 412.44-300 519.62-185.64 107.18-414.36 107.18-600 0-185.64-107.18-300-305.26-300-519.62s114.36-412.44 300-519.62c185.64-107.18 414.36-107.18 600 0 185.64 107.18 300 305.26 300 519.62" fill="#fff"/>
  <path d="m939.48 507.9c-0.58984-5.9023-5.3125-10.035-11.219-10.035h-16.531l-1.7695-20.664-6.4961-66.715c-66.715 4.1328-131.07 19.484-190.11 57.859-59.039-38.375-123.39-53.137-190.11-57.859l-5.9062 66.715-1.7695 20.664h-16.531c-5.9023 0-10.629 4.1328-11.219 10.035l-15.941 167.08h4.7227c16.531 0 29.52 12.988 29.52 29.52l0.003906 31.293c0.58984 1.7695 1.1797 3.543 1.7695 5.3125l11.809 34.832c73.801 1.1797 142.29 12.398 191.88 55.496l-189.52-48.414 10.629 31.293 181.25 46.641 252.69-64.945zm-320.59 249.15c-28.34-5.9023-59.629-9.4453-98.598-10.035l20.074-214.91 2.3633-27.75 0.58984-7.0859 1.7695-20.664 3.543-36.016c47.23 5.3125 87.969 17.121 123.98 36.016 8.2656 4.7227 17.121 9.4453 24.797 14.762l9.4453 6.4961 5.9023 3.543 5.9023-3.543 9.4453-6.4961c8.2656-5.3125 16.531-10.035 24.797-14.762 36.016-18.895 76.754-30.699 123.98-36.016l3.543 36.016 1.7695 20.664 0.58984 7.0859 2.3633 27.75 20.074 214.91c-38.965 0.58984-70.258 4.1328-98.598 10.035-35.418 8.2656-66.711 21.258-92.688 39.559-26.566-18.301-57.859-31.293-95.055-39.559zm96.824 73.801c54.906-47.824 133.43-56.09 216.68-55.496z" fill="#eb6863"/>
  <path d="m489.01 745.83c-0.58984-2.3633-1.1797-4.1328-2.3633-5.9023v-35.426c0-5.3125-4.7227-10.035-10.035-10.035l-116.31-0.003906c-5.3125 0-10.035 4.7227-10.035 10.035v35.426c0.58984-1.1797 1.7695-2.3633 2.9531-3.543h56.09c2.3633 0 4.7227 1.1797 6.4961 2.9531 1.7695 1.7695 2.9531 4.1328 2.9531 6.4961 0 5.3125-4.1328 9.4453-9.4453 9.4453h-64.359l-28.34 83.246c-1.7695 11.219 6.4961 21.254 17.711 21.254h168.27c11.219 0 20.074-10.035 17.711-21.254z" fill="#eb6863"/>
  <path d="m375.65 641.33c3.543 1.7695 6.4961 2.3633 10.035 2.3633l17.121 33.062h27.75l-23.027-44.281c1.7695-2.9531 2.9531-5.9023 3.543-9.4453 5.9023-34.832 1.7695-61.992-13.578-91.512-0.58984-1.1797-1.1797-1.7695-1.7695-2.9531l-7.6758 21.844c-0.58984 1.7695-1.7695 3.543-3.543 4.1328-1.1797 0.58984-2.9531 1.1797-4.7227 0.58984-3.543-0.58984-6.4961-3.543-6.4961-7.6758l-1.1797-55.496c-17.711-25.977-38.375-54.906-58.449-81.477l-4.1328 11.219c-0.58984 1.7695-1.7695 3.543-3.543 4.1328-1.1797 0.58984-2.9531 1.1797-4.7227 0.58984-3.543-0.58984-6.4961-3.543-6.4961-7.6758l-0.58984-34.242c-9.4453-12.398-18.895-23.617-27.16-33.062-3.543-3.543-7.0859-7.0859-11.219-8.8555-5.9023-3.543-11.219-4.1328-15.352-1.7695-4.1328 2.3633-6.4961 7.0859-7.0859 13.578-0.58984 4.7227 0 9.4453 1.1797 14.168 8.8555 33.652 23.617 77.934 38.965 121.03l26.566 9.4453c1.7695 0.58984 3.543 1.7695 4.1328 3.543 0.58984 1.1797 1.1797 2.9531 0.58984 4.7227-0.58984 3.543-3.543 6.4961-7.6758 6.4961h-15.352c5.9023 15.352 11.219 30.109 16.531 43.691 2.3633 6.4961 5.3125 12.988 8.8555 19.484 15.953 30.699 36.027 49.594 68.5 64.352z" fill="#eb6863"/>
 </g>
</svg>
